<mxfile host="65bd71144e">
    <diagram id="sFm68TYdikoI14E5qOU2" name="Page-1">
        <mxGraphModel dx="934" dy="549" grid="0" gridSize="10" guides="0" tooltips="1" connect="1" arrows="1" fold="1" page="1" pageScale="1" pageWidth="850" pageHeight="1100" background="#FFFFFF" math="0" shadow="0">
            <root>
                <mxCell id="0"/>
                <mxCell id="1" parent="0"/>
                <mxCell id="2" value="Actor" style="shape=umlActor;verticalLabelPosition=bottom;verticalAlign=top;html=1;outlineConnect=0;fillColor=#fff2cc;strokeColor=#d6b656;" parent="1" vertex="1">
                    <mxGeometry x="130" y="90" width="30" height="60" as="geometry"/>
                </mxCell>
                <mxCell id="6" value="seq diag" style="swimlane;whiteSpace=wrap;html=1;align=left;" parent="1" vertex="1">
                    <mxGeometry x="84" y="21" width="820" height="539" as="geometry"/>
                </mxCell>
                <mxCell id="10" value="" style="endArrow=none;dashed=1;html=1;dashPattern=1 3;strokeWidth=2;startArrow=none;" parent="6" source="86" edge="1">
                    <mxGeometry width="50" height="50" relative="1" as="geometry">
                        <mxPoint x="718" y="495" as="sourcePoint"/>
                        <mxPoint x="718.3387533875339" y="155" as="targetPoint"/>
                    </mxGeometry>
                </mxCell>
                <mxCell id="101" value="" style="ellipse;shape=cloud;whiteSpace=wrap;html=1;" vertex="1" parent="6">
                    <mxGeometry x="642" y="93" width="139" height="80" as="geometry"/>
                </mxCell>
                <mxCell id="8" value="" style="endArrow=none;dashed=1;html=1;dashPattern=1 3;strokeWidth=2;entryX=0.5;entryY=1;entryDx=0;entryDy=0;" parent="6" target="13" edge="1">
                    <mxGeometry width="50" height="50" relative="1" as="geometry">
                        <mxPoint x="391" y="494" as="sourcePoint"/>
                        <mxPoint x="398" y="155" as="targetPoint"/>
                    </mxGeometry>
                </mxCell>
                <mxCell id="13" value="form-currency Component" style="rounded=1;whiteSpace=wrap;html=1;" parent="6" vertex="1">
                    <mxGeometry x="333" y="106" width="116" height="50" as="geometry"/>
                </mxCell>
                <mxCell id="17" value="exchange()" style="text;html=1;align=center;verticalAlign=middle;resizable=0;points=[];autosize=1;strokeColor=none;fillColor=none;" parent="6" vertex="1">
                    <mxGeometry x="450" y="230" width="78" height="26" as="geometry"/>
                </mxCell>
                <mxCell id="25" value="getRate()" style="text;html=1;align=center;verticalAlign=middle;resizable=0;points=[];autosize=1;strokeColor=none;fillColor=none;" parent="6" vertex="1">
                    <mxGeometry x="606" y="266" width="68" height="26" as="geometry"/>
                </mxCell>
                <mxCell id="55" value="" style="html=1;points=[];perimeter=orthogonalPerimeter;fillColor=strokeColor;" parent="6" vertex="1">
                    <mxGeometry x="390.5" y="215" width="5" height="236" as="geometry"/>
                </mxCell>
                <mxCell id="88" value="Exchange Rate" style="text;html=1;strokeColor=none;fillColor=none;align=center;verticalAlign=middle;whiteSpace=wrap;rounded=0;" parent="6" vertex="1">
                    <mxGeometry x="588" y="425" width="90" height="30" as="geometry"/>
                </mxCell>
                <mxCell id="90" value="" style="endArrow=classic;html=1;entryX=0.014;entryY=0.008;entryDx=0;entryDy=0;entryPerimeter=0;" parent="6" target="86" edge="1">
                    <mxGeometry width="50" height="50" relative="1" as="geometry">
                        <mxPoint x="558" y="294" as="sourcePoint"/>
                        <mxPoint x="717" y="294" as="targetPoint"/>
                    </mxGeometry>
                </mxCell>
                <mxCell id="85" value="" style="html=1;points=[];perimeter=orthogonalPerimeter;fillColor=strokeColor;" parent="6" vertex="1">
                    <mxGeometry x="558" y="255" width="5" height="38" as="geometry"/>
                </mxCell>
                <mxCell id="92" value="" style="endArrow=none;dashed=1;html=1;dashPattern=1 3;strokeWidth=2;" parent="6" target="86" edge="1">
                    <mxGeometry width="50" height="50" relative="1" as="geometry">
                        <mxPoint x="718" y="500" as="sourcePoint"/>
                        <mxPoint x="778" y="175" as="targetPoint"/>
                    </mxGeometry>
                </mxCell>
                <mxCell id="86" value="" style="html=1;points=[];perimeter=orthogonalPerimeter;fillColor=strokeColor;" parent="6" vertex="1">
                    <mxGeometry x="718" y="294" width="5" height="157" as="geometry"/>
                </mxCell>
                <mxCell id="60" value="" style="endArrow=classic;html=1;dashed=1;dashPattern=8 8;entryX=1;entryY=0.883;entryDx=0;entryDy=0;entryPerimeter=0;" parent="6" edge="1" target="134">
                    <mxGeometry width="50" height="50" relative="1" as="geometry">
                        <mxPoint x="716" y="452" as="sourcePoint"/>
                        <mxPoint x="235" y="452" as="targetPoint"/>
                    </mxGeometry>
                </mxCell>
                <mxCell id="15" value="" style="endArrow=classic;html=1;entryX=0.001;entryY=0.003;entryDx=0;entryDy=0;entryPerimeter=0;" parent="6" target="85" edge="1">
                    <mxGeometry width="50" height="50" relative="1" as="geometry">
                        <mxPoint x="396" y="255" as="sourcePoint"/>
                        <mxPoint x="555" y="254" as="targetPoint"/>
                        <Array as="points">
                            <mxPoint x="515" y="255"/>
                        </Array>
                    </mxGeometry>
                </mxCell>
                <mxCell id="99" value="ask change" style="text;html=1;strokeColor=none;fillColor=none;align=center;verticalAlign=middle;whiteSpace=wrap;rounded=0;" vertex="1" parent="6">
                    <mxGeometry x="88" y="180" width="60" height="30" as="geometry"/>
                </mxCell>
                <mxCell id="102" value="API currency" style="text;html=1;strokeColor=none;fillColor=none;align=center;verticalAlign=middle;whiteSpace=wrap;rounded=0;" vertex="1" parent="6">
                    <mxGeometry x="683" y="118" width="60" height="30" as="geometry"/>
                </mxCell>
                <mxCell id="104" value="Change prices" style="text;html=1;strokeColor=none;fillColor=none;align=center;verticalAlign=middle;whiteSpace=wrap;rounded=0;" vertex="1" parent="6">
                    <mxGeometry x="133" y="440" width="60" height="30" as="geometry"/>
                </mxCell>
                <mxCell id="130" value="" style="endArrow=none;dashed=1;html=1;dashPattern=1 3;strokeWidth=2;startArrow=none;" edge="1" parent="6" source="134">
                    <mxGeometry width="50" height="50" relative="1" as="geometry">
                        <mxPoint x="228" y="510" as="sourcePoint"/>
                        <mxPoint x="228" y="152" as="targetPoint"/>
                    </mxGeometry>
                </mxCell>
                <mxCell id="131" value="Page Commande" style="rounded=1;whiteSpace=wrap;html=1;" vertex="1" parent="6">
                    <mxGeometry x="178" y="102" width="100" height="50" as="geometry"/>
                </mxCell>
                <mxCell id="134" value="" style="html=1;points=[];perimeter=orthogonalPerimeter;fillColor=strokeColor;" vertex="1" parent="6">
                    <mxGeometry x="226" y="220" width="5" height="262" as="geometry"/>
                </mxCell>
                <mxCell id="7" value="" style="endArrow=none;dashed=1;html=1;dashPattern=1 3;strokeWidth=2;" parent="1" edge="1">
                    <mxGeometry width="50" height="50" relative="1" as="geometry">
                        <mxPoint x="160" y="520" as="sourcePoint"/>
                        <mxPoint x="160" y="180" as="targetPoint"/>
                    </mxGeometry>
                </mxCell>
                <mxCell id="14" value="" style="endArrow=classic;html=1;" parent="1" edge="1" target="55">
                    <mxGeometry width="50" height="50" relative="1" as="geometry">
                        <mxPoint x="160" y="240" as="sourcePoint"/>
                        <mxPoint x="466" y="237" as="targetPoint"/>
                    </mxGeometry>
                </mxCell>
                <mxCell id="103" value="" style="endArrow=classic;html=1;dashed=1;dashPattern=8 8;" edge="1" parent="1">
                    <mxGeometry width="50" height="50" relative="1" as="geometry">
                        <mxPoint x="308" y="503" as="sourcePoint"/>
                        <mxPoint x="159" y="503" as="targetPoint"/>
                    </mxGeometry>
                </mxCell>
                <mxCell id="127" value="" style="endArrow=none;dashed=1;html=1;dashPattern=1 3;strokeWidth=2;startArrow=none;" edge="1" parent="1">
                    <mxGeometry width="50" height="50" relative="1" as="geometry">
                        <mxPoint x="642" y="276" as="sourcePoint"/>
                        <mxPoint x="642" y="176" as="targetPoint"/>
                    </mxGeometry>
                </mxCell>
                <mxCell id="128" value="CurrencyService" style="rounded=1;whiteSpace=wrap;html=1;" vertex="1" parent="1">
                    <mxGeometry x="592" y="126" width="100" height="50" as="geometry"/>
                </mxCell>
                <mxCell id="129" value="" style="endArrow=none;dashed=1;html=1;dashPattern=1 3;strokeWidth=2;" edge="1" parent="1">
                    <mxGeometry width="50" height="50" relative="1" as="geometry">
                        <mxPoint x="641" y="524" as="sourcePoint"/>
                        <mxPoint x="642" y="314" as="targetPoint"/>
                    </mxGeometry>
                </mxCell>
            </root>
        </mxGraphModel>
    </diagram>
</mxfile>